<?xml version="1.0" encoding="UTF-8" standalone="no"?>
<!-- Created with Inkscape (http://www.inkscape.org/) -->

<svg
   xmlns:dc="http://purl.org/dc/elements/1.1/"
   xmlns:cc="http://creativecommons.org/ns#"
   xmlns:rdf="http://www.w3.org/1999/02/22-rdf-syntax-ns#"
   xmlns:svg="http://www.w3.org/2000/svg"
   xmlns="http://www.w3.org/2000/svg"
   xmlns:sodipodi="http://sodipodi.sourceforge.net/DTD/sodipodi-0.dtd"
   xmlns:inkscape="http://www.inkscape.org/namespaces/inkscape"
   version="1.0"
   width="1052.3622"
   height="744.09448"
   id="svg2"
   inkscape:version="0.48.4 r9939"
   sodipodi:docname="Led_Symbol_clip_art.svg">
  <metadata
     id="metadata3045">
    <rdf:RDF>
      <cc:Work
         rdf:about="">
        <dc:format>image/svg+xml</dc:format>
        <dc:type
           rdf:resource="http://purl.org/dc/dcmitype/StillImage" />
        <dc:title></dc:title>
      </cc:Work>
    </rdf:RDF>
  </metadata>
  <sodipodi:namedview
     pagecolor="#ffffff"
     bordercolor="#666666"
     borderopacity="1"
     objecttolerance="10"
     gridtolerance="10"
     guidetolerance="10"
     inkscape:pageopacity="0"
     inkscape:pageshadow="2"
     inkscape:window-width="1276"
     inkscape:window-height="757"
     id="namedview3043"
     showgrid="false"
     inkscape:zoom="1.0244144"
     inkscape:cx="512.52153"
     inkscape:cy="417.74621"
     inkscape:window-x="0"
     inkscape:window-y="20"
     inkscape:window-maximized="0"
     inkscape:current-layer="svg2" />
  <defs
     id="defs2200">
    <marker
       style="overflow:visible"
       id="Arrow2Mend"
       refX="0"
       refY="0"
       orient="auto"
       inkscape:stockid="Arrow2Mend">
      <path
         transform="scale(-0.6,-0.6)"
         d="M 8.7185878,4.0337352 L -2.2072895,0.016013256 L 8.7185884,-4.0017078 C 6.97309,-1.6296469 6.9831476,1.6157441 8.7185878,4.0337352 z "
         style="font-size:12px;fill-rule:evenodd;stroke-width:0.625;stroke-linejoin:round"
         id="path2916" />
    </marker>
  </defs>
  <g
     id="g3972"
     transform="translate(49.640862,-45.157394)">
    <g
       transform="matrix(1.9122179,0,0,1.9122179,399.44434,496.38547)"
       id="g3815">
      <path
         inkscape:connector-curvature="0"
         d="m 2,25.3 21,0"
         style="fill:none;stroke:#000000;stroke-width:0.99999999mm;stroke-linecap:square;stroke-opacity:1"
         id="path13492" />
      <path
         inkscape:connector-curvature="0"
         d="m 54,25.3 22,0"
         style="fill:none;stroke:#000000;stroke-width:0.99999999mm;stroke-linecap:square;stroke-opacity:1"
         id="path13494" />
      <path
         d="m 23.157772,39.221114 0,-28 28.4,14 -28.4,14 z"
         style="fill:#000000;fill-opacity:1;stroke:#000000;stroke-width:0.99999999mm;stroke-linecap:square;stroke-opacity:1"
         id="path13490"
         inkscape:connector-curvature="0" />
      <path
         inkscape:connector-curvature="0"
         d="m 52.7,39.3 0,-28"
         style="fill:none;stroke:#000000;stroke-width:0.99999999mm;stroke-linecap:square;stroke-opacity:1"
         id="path14470" />
      <path
         inkscape:connector-curvature="0"
         d="m 38.5,0.4 -6,3.9 2.4,1.2 -2.5,4.9 -0.4,0.8 1.6,0.8 0.4,-0.8 2.5,-4.9 2.3,1.2 -0.3,-7.1 z"
         style="fill:#000000;fill-opacity:1;stroke:none"
         id="path3347" />
      <path
         inkscape:connector-curvature="0"
         d="m 47,4.8 -5.9,3.8 2.4,1.2 -2.5,4.9 -0.4,0.8 1.6,0.8 0.4,-0.8 2.4,-4.9 2.4,1.2 -0.4,-7 z"
         style="fill:#000000;fill-opacity:1;stroke:none"
         id="path3349" />
    </g>
    <path
       inkscape:connector-curvature="0"
       id="path3825"
       d="m 339.70254,468.83003 268.6366,0 -4.33285,-1.44429"
       style="fill:none;stroke:#000000;stroke-width:14.82796955;stroke-linecap:butt;stroke-linejoin:miter;stroke-miterlimit:4;stroke-opacity:1;stroke-dasharray:none" />
    <path
       inkscape:connector-curvature="0"
       id="path3827"
       d="m 339.70254,396.61589 268.6366,0"
       style="fill:none;stroke:#000000;stroke-width:14.82796955;stroke-linecap:butt;stroke-linejoin:miter;stroke-miterlimit:4;stroke-opacity:1;stroke-dasharray:none" />
    <g
       style="stroke:#000000;stroke-opacity:1"
       inkscape:label="Layer 1"
       id="layer1"
       transform="matrix(-0.31575523,0.00118604,-0.00118604,-0.31575523,561.32976,381.93672)">
      <g
         style="stroke:#000000;stroke-opacity:1"
         id="g2168"
         transform="matrix(4.7338709,0,0,4.6591731,-1119.5584,-1665.6072)">
        <path
           inkscape:connector-curvature="0"
           id="rect1877"
           d="m 267.21875,390.90625 0,0.9375 0,17.9375 0,0.9375 0.9375,0 53.15625,0 0.9375,0 0,-0.9375 0,-17.9375 0,-0.9375 -0.9375,0 -53.15625,0 -0.9375,0 z m 1.875,1.875 51.28125,0 0,16.0625 -51.28125,0 0,-16.0625 z"
           style="fill:#000000;fill-opacity:1;stroke:#000000;stroke-opacity:1" />
        <path
           inkscape:connector-curvature="0"
           id="path2764"
           d="m 232.75,399.875 0,1.875 35.40625,0 0,-1.875 -35.40625,0 z"
           style="fill:#000000;fill-opacity:1;stroke:#000000;stroke-opacity:1" />
        <path
           inkscape:connector-curvature="0"
           id="path2766"
           d="m 321.3125,399.875 0,1.875 35.4375,0 0,-1.875 -35.4375,0 z"
           style="fill:#000000;fill-opacity:1;stroke:#000000;stroke-opacity:1" />
        <g
           style="stroke:#000000;stroke-opacity:1"
           id="g3278">
          <path
             inkscape:connector-curvature="0"
             id="path2768"
             d="m 268.75,368.34375 -1.15625,1.5 23.78125,18.03125 1.125,-1.5 -23.75,-18.03125 z"
             style="fill:#000000;fill-opacity:1;stroke:#000000;stroke-opacity:1" />
          <path
             inkscape:connector-curvature="0"
             id="path3284"
             style="font-size:12px;fill-rule:evenodd;stroke:#000000;stroke-width:0.625;stroke-linejoin:round;stroke-opacity:1"
             d="m 286.85735,377.58157 7.06103,11.02974 -12.52448,-3.82766 c 3.17728,-0.93926 5.37487,-3.85491 5.46345,-7.20208 z" />
        </g>
        <g
           style="stroke:#000000;stroke-opacity:1"
           id="g3270">
          <path
             inkscape:connector-curvature="0"
             id="path2950"
             d="m 286.4375,368.34375 -1.125,1.5 23.78125,18.03125 1.125,-1.5 -23.78125,-18.03125 z"
             style="fill:#000000;fill-opacity:1;stroke:#000000;stroke-opacity:1" />
          <path
             inkscape:connector-curvature="0"
             id="path3276"
             style="font-size:12px;fill-rule:evenodd;stroke:#000000;stroke-width:0.625;stroke-linejoin:round;stroke-opacity:1"
             d="m 304.57386,377.58156 7.06103,11.02975 -12.52448,-3.82766 c 3.17728,-0.93926 5.37487,-3.85491 5.46345,-7.20209 z" />
        </g>
      </g>
    </g>
    <text
       sodipodi:linespacing="125%"
       id="text3945"
       y="458.6145"
       x="398.29022"
       style="font-size:85.03236389px;font-style:normal;font-variant:normal;font-weight:normal;font-stretch:normal;line-height:125%;letter-spacing:0px;word-spacing:0px;fill:#000000;fill-opacity:1;stroke:none;font-family:Comic Sans MS;-inkscape-font-specification:Comic Sans MS"
       xml:space="preserve"><tspan
         style="font-style:normal;font-variant:normal;font-weight:bold;font-stretch:normal;font-family:Source Code Pro;-inkscape-font-specification:Source Code Pro Bold"
         y="458.6145"
         x="398.29022"
         id="tspan3947"
         sodipodi:role="line">&gt;&gt;&gt;</tspan></text>
    <path
       transform="matrix(0.67887931,0,0,0.67887931,169.43112,158.17205)"
       d="m 676.44952,403.79895 c 0,135.33207 -101.98238,245.04039 -227.78402,245.04039 -125.80165,0 -227.78403,-109.70832 -227.78403,-245.04039 0,-135.33207 101.98238,-245.04039 227.78403,-245.04039 125.80164,0 227.78402,109.70832 227.78402,245.04039 z"
       sodipodi:ry="245.04039"
       sodipodi:rx="227.78403"
       sodipodi:cy="403.79895"
       sodipodi:cx="448.6655"
       id="path3949"
       style="fill:none;stroke:#000000;stroke-width:14.17322826;stroke-linecap:round;stroke-linejoin:round;stroke-miterlimit:4;stroke-opacity:1;stroke-dasharray:none"
       sodipodi:type="arc" />
  </g>
  <rect
     style="fill:none;stroke:none"
     id="rect3997"
     width="572.91132"
     height="484.55875"
     x="176.70518"
     y="140.81194" />
</svg>
