<?xml version="1.0" encoding="UTF-8" standalone="no"?>
<!-- Created with Inkscape (http://www.inkscape.org/) -->

<svg
   xmlns:dc="http://purl.org/dc/elements/1.1/"
   xmlns:cc="http://creativecommons.org/ns#"
   xmlns:rdf="http://www.w3.org/1999/02/22-rdf-syntax-ns#"
   xmlns:svg="http://www.w3.org/2000/svg"
   xmlns="http://www.w3.org/2000/svg"
   xmlns:sodipodi="http://sodipodi.sourceforge.net/DTD/sodipodi-0.dtd"
   xmlns:inkscape="http://www.inkscape.org/namespaces/inkscape"
   width="210mm"
   height="297mm"
   viewBox="0 0 744.09448819 1052.3622047"
   id="svg2"
   version="1.1"
   inkscape:version="0.91 r13725"
   sodipodi:docname="logo2.svg">
  <defs
     id="defs4" />
  <sodipodi:namedview
     id="base"
     pagecolor="#ffffff"
     bordercolor="#666666"
     borderopacity="1.0"
     inkscape:pageopacity="0.0"
     inkscape:pageshadow="2"
     inkscape:zoom="1"
     inkscape:cx="355.04724"
     inkscape:cy="556.21999"
     inkscape:document-units="px"
     inkscape:current-layer="layer1"
     showgrid="false"
     inkscape:window-width="1276"
     inkscape:window-height="757"
     inkscape:window-x="0"
     inkscape:window-y="20"
     inkscape:window-maximized="0" />
  <metadata
     id="metadata7">
    <rdf:RDF>
      <cc:Work
         rdf:about="">
        <dc:format>image/svg+xml</dc:format>
        <dc:type
           rdf:resource="http://purl.org/dc/dcmitype/StillImage" />
        <dc:title />
      </cc:Work>
    </rdf:RDF>
  </metadata>
  <g
     inkscape:label="Layer 1"
     inkscape:groupmode="layer"
     id="layer1">
    <path
       style="fill:#000000"
       d="m 510.92689,377.68491 c -1.40508,5.06015 -4.12808,6.99584 -22.89193,16.27338 -9.28726,4.59218 -36.40604,17.38165 -60.26369,28.42139 l -43.37748,20.07244 -4.96345,0.42622 c -10.34355,0.88829 -20.8681,-0.40535 -30.23958,-3.71701 -6.71558,-2.37303 -11.04971,-2.18905 -17.46249,0.74154 -3.81915,1.7453 -3.8281,1.76082 -2.92943,3.72738 l 0.903,1.97597 -4.64333,2.12196 c -4.85402,2.21824 -8.54645,2.58891 -10.14741,1.01863 -0.49319,-0.4835 -2.70398,-4.83494 -4.91336,-9.66956 -3.98118,-8.71176 -4.00542,-8.81035 -2.90543,-10.94846 0.9106,-1.76796 2.04845,-2.58637 6.29207,-4.52565 l 5.18045,-2.36745 0.903,1.97595 c 0.89989,1.96919 0.91666,1.96978 4.73545,0.22466 6.41279,-2.93058 9.38853,-6.08707 11.98947,-12.71775 3.63558,-9.26819 9.56668,-18.09807 16.98518,-25.2867 l 3.57509,-3.46426 42.57595,-19.21294 c 23.41665,-10.56735 50.83236,-22.70695 60.92401,-26.97654 20.36893,-8.61818 23.45463,-9.39408 28.27396,-7.1097 3.22585,1.52912 4.24986,4.17702 4.24526,10.97708 l -0.003,4.49893 -2.43589,-0.46882 c -2.5539,-0.49148 -10.96714,0.46038 -11.27083,1.27512 -0.097,0.26035 1.12313,0.32365 2.71128,0.14118 8.79392,-1.01037 17.34257,4.30274 18.32342,11.38826 0.7491,5.41116 -1.31696,10.83073 -6.03281,15.82531 -1.18041,1.25015 -1.82247,2.14351 -1.42688,1.98527 1.58895,-0.63549 6.98009,-5.81217 8.13464,-7.81096 l 1.23057,-2.13037 3.40353,2.94209 c 5.14438,4.44698 6.47627,6.95427 5.52108,10.394 z"
       id="path4201"
       inkscape:connector-curvature="0"
       inkscape:export-xdpi="300.0932"
       inkscape:export-ydpi="300.0932" />
    <path
       style="fill:none;fill-rule:evenodd;stroke:#000000;stroke-width:16.6189537;stroke-linecap:round;stroke-linejoin:miter;stroke-miterlimit:4;stroke-dasharray:none;stroke-opacity:1"
       d="M 167.85332,450.26847 501.03194,297.97305"
       id="path4213"
       inkscape:connector-curvature="0"
       inkscape:export-xdpi="300.0932"
       inkscape:export-ydpi="300.0932" />
    <path
       style="fill:none;fill-rule:evenodd;stroke:#000000;stroke-width:16.6189537;stroke-linecap:round;stroke-linejoin:miter;stroke-miterlimit:4;stroke-dasharray:none;stroke-opacity:1"
       d="M 208.01914,538.13974 541.19776,385.84432"
       id="path4213-1"
       inkscape:connector-curvature="0"
       inkscape:export-xdpi="300.0932"
       inkscape:export-ydpi="300.0932" />
    <path
       style="fill:none;fill-rule:evenodd;stroke:#000000;stroke-width:6.20110226;stroke-linecap:round;stroke-linejoin:round;stroke-miterlimit:4;stroke-dasharray:none;stroke-opacity:1"
       d="M 183.97481,479.7851 290.81519,429.47311"
       id="path4230"
       inkscape:connector-curvature="0"
       inkscape:export-xdpi="300.0932"
       inkscape:export-ydpi="300.0932" />
    <path
       style="fill:none;fill-rule:evenodd;stroke:#000000;stroke-width:6.20110226;stroke-linecap:round;stroke-linejoin:round;stroke-miterlimit:4;stroke-dasharray:none;stroke-opacity:1"
       d="M 197.81656,513.2947 306.43523,463.64528"
       id="path4232"
       inkscape:connector-curvature="0"
       inkscape:export-xdpi="300.0932"
       inkscape:export-ydpi="300.0932" />
    <path
       style="fill:none;fill-rule:evenodd;stroke:#000000;stroke-width:6.20110226;stroke-linecap:round;stroke-linejoin:round;stroke-miterlimit:4;stroke-dasharray:none;stroke-opacity:1"
       d="M 230.28089,477.79928 293.18562,447.5702"
       id="path4234"
       inkscape:connector-curvature="0"
       inkscape:export-xdpi="300.0932"
       inkscape:export-ydpi="300.0932" />
    <rect
       style="fill:none;fill-opacity:1;stroke:#000000;stroke-width:8;stroke-linecap:round;stroke-linejoin:round;stroke-miterlimit:4;stroke-dasharray:none;stroke-dashoffset:0;stroke-opacity:1"
       id="rect4305"
       width="215.49638"
       height="72.295563"
       x="313.30023"
       y="534.35291"
       inkscape:export-xdpi="300.0932"
       inkscape:export-ydpi="300.0932" />
    <path
       style="fill:none;fill-rule:evenodd;stroke:#000000;stroke-width:8;stroke-linecap:round;stroke-linejoin:round;stroke-opacity:1;stroke-miterlimit:4;stroke-dasharray:none"
       d="m 453.44152,436.43747 0,37.78679 -54.79085,0 0,34.00812 37.7868,0 0,18.89339 0,5.66802"
       id="path4307"
       inkscape:connector-curvature="0"
       inkscape:export-xdpi="300.0932"
       inkscape:export-ydpi="300.0932" />
    <text
       xml:space="preserve"
       style="font-style:normal;font-variant:normal;font-weight:300;font-stretch:normal;font-size:80px;line-height:125%;font-family:'Source Code Pro';-inkscape-font-specification:'Source Code Pro Light';letter-spacing:0px;word-spacing:0px;fill:#000000;fill-opacity:1;stroke:none;stroke-width:1px;stroke-linecap:butt;stroke-linejoin:miter;stroke-opacity:1"
       x="86"
       y="294.36221"
       id="text4149"
       sodipodi:linespacing="125%"><tspan
         sodipodi:role="line"
         id="tspan4151"
         x="86"
         y="294.36221"
         style="font-style:normal;font-variant:normal;font-weight:500;font-stretch:normal;font-family:'7-Segment';-inkscape-font-specification:'7-Segment Medium'" /></text>
    <text
       xml:space="preserve"
       style="font-style:normal;font-variant:normal;font-weight:300;font-stretch:normal;font-size:80px;line-height:125%;font-family:'Source Code Pro';-inkscape-font-specification:'Source Code Pro Light';letter-spacing:0px;word-spacing:0px;fill:#000000;fill-opacity:1;stroke:none;stroke-width:1px;stroke-linecap:butt;stroke-linejoin:miter;stroke-opacity:1"
       x="327"
       y="600.36218"
       id="text4153"
       sodipodi:linespacing="125%"
       inkscape:export-xdpi="300.0932"
       inkscape:export-ydpi="300.0932"><tspan
         sodipodi:role="line"
         id="tspan4155"
         x="327"
         y="600.36218"
         style="font-style:normal;font-variant:normal;font-weight:500;font-stretch:normal;font-family:'7-Segment';-inkscape-font-specification:'7-Segment Medium'">02342</tspan></text>
  </g>
</svg>
